<?xml version="1.0" encoding="UTF-8" standalone="no"?>
<!-- Created with Inkscape (http://www.inkscape.org/) -->

<svg
   xmlns:dc="http://purl.org/dc/elements/1.1/"
   xmlns:cc="http://creativecommons.org/ns#"
   xmlns:rdf="http://www.w3.org/1999/02/22-rdf-syntax-ns#"
   xmlns:svg="http://www.w3.org/2000/svg"
   xmlns="http://www.w3.org/2000/svg"
   xmlns:sodipodi="http://sodipodi.sourceforge.net/DTD/sodipodi-0.dtd"
   xmlns:inkscape="http://www.inkscape.org/namespaces/inkscape"
   width="500mm"
   height="500mm"
   viewBox="0 0 500 500"
   version="1.1"
   id="svg8"
   inkscape:version="0.92.1 r15371"
   sodipodi:docname="CISL.svg">
  <defs
     id="defs2" />
  <sodipodi:namedview
     id="base"
     pagecolor="#ffffff"
     bordercolor="#666666"
     borderopacity="1.0"
     inkscape:pageopacity="0.0"
     inkscape:pageshadow="2"
     inkscape:zoom="0.061871843"
     inkscape:cx="795.5815"
     inkscape:cy="-1508.2121"
     inkscape:document-units="mm"
     inkscape:current-layer="layer1"
     showgrid="false"
     fit-margin-top="0"
     fit-margin-left="0"
     fit-margin-right="0"
     fit-margin-bottom="0"
     inkscape:window-width="1600"
     inkscape:window-height="837"
     inkscape:window-x="-8"
     inkscape:window-y="-8"
     inkscape:window-maximized="1"
     inkscape:pagecheckerboard="true" />
  <metadata
     id="metadata5">
    <rdf:RDF>
      <cc:Work
         rdf:about="">
        <dc:format>image/svg+xml</dc:format>
        <dc:type
           rdf:resource="http://purl.org/dc/dcmitype/StillImage" />
        <dc:title></dc:title>
      </cc:Work>
    </rdf:RDF>
  </metadata>
  <g
     inkscape:label="Livello 1"
     inkscape:groupmode="layer"
     id="layer1"
     transform="translate(676.66693,170.48369)">
    <circle
       style="fill:#ffffff;fill-opacity:1;stroke-width:0.83333331"
       id="path47"
       cx="-426.66693"
       cy="79.516312"
       r="250" />
    <path
       style="fill:#177246;fill-opacity:1;stroke-width:0.53996599"
       d="m -610.83323,219.5157 c -26.21221,-33.61466 -42.53005,-73.83258 -47.81503,-117.84758 -1.1931,-9.936669 -1.34049,-38.432322 -0.25134,-48.596934 3.73502,-34.857388 14.60345,-67.581082 32.15288,-96.809041 48.47118,-80.727045 139.90534,-124.789845 232.67593,-112.128225 50.00578,6.82494 96.79343,29.77639 133.68076,65.576306 19.20518,18.639041 33.77551,38.428735 45.71877,62.096082 11.85288,23.4882857 18.67225,45.58502 22.16331,71.81549 1.12357,8.442081 1.28035,25.545347 0.29202,31.857979 -6.29973,40.237943 -33.8699,60.405773 -86.73088,63.444453 -5.76498,0.33138 -51.65891,0.41324 -123.38222,0.22006 -125.87084,-0.33906 -156.09118,0.002 -164.41963,1.85951 -5.23309,1.16667 -13.24817,3.85277 -16.73896,5.60975 -11.51978,5.79806 -20.45382,14.84253 -25.67855,25.99594 -3.64519,7.78145 -4.54847,12.25812 -4.53447,22.47276 0.0163,11.28938 1.08147,15.85049 5.96296,25.51404 1.01281,2.00498 1.84147,3.76661 1.84147,3.91475 0,0.97359 -1.33905,-0.38126 -4.93702,-4.99534 z M -528.5836,88.11041 c 18.54437,-3.11551 31.68534,-16.730224 34.7321,-35.984163 l 0.36314,-2.294837 h -15.09749 -15.09751 l -0.33775,2.112204 c -1.32,8.254919 -7.25196,13.53051 -15.22629,13.541531 -5.80965,0.0082 -9.16118,-1.206266 -12.44116,-4.507572 -4.61394,-4.643938 -6.62292,-12.761632 -5.96565,-24.105347 0.69891,-12.06253 4.11038,-19.376285 10.50204,-22.515 2.5732,-1.263612 3.75069,-1.50853 7.13181,-1.483408 8.31717,0.06184 13.98643,4.624919 15.70564,12.641286 l 0.58283,2.717653 h 14.79398 14.794 l -0.33445,-2.564837 c -0.18387,-1.410653 -0.92218,-4.621163 -1.64051,-7.134449 -5.3393,-18.68134665 -21.44708,-29.120245 -44.98143,-29.150898 -22.30061,-0.02898 -39.64575,12.5923881 -45.61549,33.192694 -4.55696,15.725041 -1.88167,35.727572 6.34947,47.473878 10.10984,14.427265 30.68904,21.605081 51.78272,18.061265 z m 160.00245,-0.272898 c 18.79249,-3.062408 29.67167,-13.222204 30.87555,-28.833959 1.02734,-13.322367 -5.39888,-22.190286 -20.34208,-28.071143 -1.63111,-0.641939 -7.99007,-2.468796 -14.13098,-4.059714 -6.14094,-1.590898 -12.37109,-3.411245 -13.8448,-4.045225 -6.65396,-2.862449 -7.70698,-8.371551 -2.01563,-10.545081 3.05732,-1.167613 10.47594,-0.900613 13.09606,0.471326 2.33686,1.223592 4.36149,3.487327 4.76592,5.328714 l 0.33185,1.510878 h 14.85362 14.85363 l -0.38184,-2.294857 c -1.64685,-9.8977756 -8.12677,-18.6370409 -17.08236,-23.0384287 -6.40288,-3.1468163 -11.73282,-4.3791833 -20.42835,-4.7233473 -11.55916,-0.45751 -22.22092,1.6613473 -29.69812,5.9020412 -3.94917,2.2397551 -9.23217,7.5699796 -11.04115,11.1398163 -3.76961,7.4389795 -3.87728,18.4183065 -0.25034,25.5276935 1.57489,3.087062 5.58073,7.25896 9.28277,9.667633 4.91174,3.195735 10.36151,5.189347 22.96653,8.40151 13.72959,3.498776 17.20933,4.97247 18.63917,7.893857 0.95922,1.959878 0.95922,2.082817 0,4.031368 -1.292,2.62451 -3.4017,3.774571 -8.31472,4.532612 -7.58802,1.170775 -14.09502,-1.435245 -16.33892,-6.543653 l -1.17422,-2.673184 -15.03151,-0.01225 -15.03153,-0.01225 0.35437,2.294858 c 1.3724,8.887714 6.34277,16.441081 14.27748,21.697122 10.59027,7.015143 24.17998,9.164551 40.8096,6.454612 z M -443.36644,39.302063 V -7.9449573 h -15.65902 -15.65902 V 39.302063 86.549084 h 15.65902 15.65902 z m 198.70747,36.177714 V 64.410471 h -21.05867 -21.05868 V 28.232757 -7.9449573 h -15.659 -15.65902 V 39.302063 86.549084 h 36.7177 36.71767 z"
       id="path49"
       inkscape:connector-curvature="0"
       sodipodi:nodetypes="cccsssssccscccccscsccccccsssccccccccccscsccccccccccssccsscccscccccccccccccccccccccccccccccc" />
    <path
       style="fill:#da0e32;fill-opacity:1;stroke-width:0.53996599"
       d="m -437.12954,311.81557 c -38.52263,-2.28843 -67.25245,-11.17414 -81.69721,-25.26779 -8.05322,-7.85747 -11.7741,-16.47823 -11.78922,-27.31404 -0.0143,-9.63045 2.09349,-14.97188 8.43255,-21.3779 6.91661,-6.98965 15.50749,-10.16108 29.97735,-11.06653 4.96818,-0.31086 46.55171,-0.48496 102.32355,-0.42835 98.20916,0.0996 101.66618,0.0331 117.71259,-2.27018 17.73349,-2.54531 29.83202,-6.89741 39.55251,-14.22794 2.1531,-1.62374 3.91476,-2.84321 3.91476,-2.70996 0,0.41692 -8.08982,11.62873 -11.26533,15.61282 -9.02427,11.32208 -22.48443,25.23098 -32.7419,33.83349 -36.54467,30.64842 -79.80726,49.07469 -127.24281,54.19485 -7.5638,0.81643 -30.172,1.43766 -37.17684,1.02153 z"
       id="path49-3"
       inkscape:connector-curvature="0"
       sodipodi:nodetypes="sscccsccscsss" />
  </g>
</svg>
