<svg xmlns="http://www.w3.org/2000/svg" version="1.1" xmlns:xlink="http://www.w3.org/1999/xlink" xmlns:svgjs="http://svgjs.dev/svgjs" width="1000" height="1000" viewBox="0 0 1000 1000"><rect width="1000" height="1000" fill="#ffffff"></rect><g transform="matrix(0.7,0,0,0.7,150,281.25)"><svg viewBox="0 0 512 320" data-background-color="#ffffff" preserveAspectRatio="xMidYMid meet" height="625" width="1000" xmlns="http://www.w3.org/2000/svg" xmlns:xlink="http://www.w3.org/1999/xlink"><g id="tight-bounds" transform="matrix(1,0,0,1,0,0)"><svg viewBox="0 0 512 320" height="320" width="512"><g><svg></svg></g><g><svg viewBox="0 0 512 320" height="320" width="512"><g><path xmlns="http://www.w3.org/2000/svg" d="M96 160c0-88.366 71.634-160 160-160 88.366 0 160 71.634 160 160 0 88.366-71.634 160-160 160-88.366 0-160-71.634-160-160z" fill="#bb84e8" fill-rule="nonzero" stroke="none" stroke-width="1" stroke-linecap="butt" stroke-linejoin="miter" stroke-miterlimit="10" stroke-dasharray="" stroke-dashoffset="0" font-family="none" font-weight="none" font-size="none" text-anchor="none" style="mix-blend-mode: normal" data-fill-palette-color="tertiary"></path></g><g transform="matrix(1,0,0,1,153.6,111.02562703123252)"><svg viewBox="0 0 204.8 97.94874593753497" height="97.94874593753497" width="204.8"><g><svg viewBox="0 0 204.8 97.94874593753497" height="97.94874593753497" width="204.8"><g transform="matrix(1,0,0,1,0,72.25014112712668)"><svg viewBox="0 0 204.8 25.69860481040828" height="25.69860481040828" width="204.8"><g id="textblocktransform"><svg viewBox="0 0 204.8 25.69860481040828" height="25.69860481040828" width="204.8" id="textblock"><g><svg viewBox="0 0 204.8 25.69860481040828" height="25.69860481040828" width="204.8"><g transform="matrix(1,0,0,1,0,0)"><svg width="204.8" viewBox="0.3500000238418579 -36.22999954223633 292.05999755859375 36.65999984741211" height="25.69860481040828" data-palette-color="#ffffff"><path d="M11.53 0L0.35-35.83 4.38-35.83Q5.03-35.83 5.45-35.5 5.88-35.18 6.03-34.68L6.03-34.68 13.43-9.78Q13.63-9.1 13.79-8.33 13.95-7.55 14.1-6.7L14.1-6.7Q14.28-7.55 14.45-8.34 14.63-9.13 14.85-9.78L14.85-9.78 23.28-34.68Q23.43-35.1 23.86-35.46 24.3-35.83 24.93-35.83L24.93-35.83 26.33-35.83Q26.98-35.83 27.39-35.5 27.8-35.18 27.98-34.68L27.98-34.68 36.35-9.78Q36.8-8.47 37.15-6.8L37.15-6.8Q37.3-7.63 37.43-8.38 37.55-9.13 37.75-9.78L37.75-9.78 45.18-34.68Q45.3-35.13 45.74-35.48 46.18-35.83 46.8-35.83L46.8-35.83 50.58-35.83 39.4 0 35.05 0 25.98-27.33Q25.7-28.1 25.48-29.13L25.48-29.13Q25.35-28.63 25.24-28.16 25.13-27.7 25-27.33L25-27.33 15.88 0 11.53 0ZM55.3-35.83L77.37-35.83 77.37-31.88 60.17-31.88 60.17-19.98 74.1-19.98 74.1-16.18 60.17-16.18 60.17-3.95 77.37-3.95 77.37 0 55.3 0 55.3-35.83ZM97.02 0L84.34 0 84.34-35.83 95.77-35.83Q99.07-35.83 101.46-35.18 103.84-34.52 105.38-33.33 106.92-32.13 107.66-30.39 108.4-28.65 108.4-26.48L108.4-26.48Q108.4-25.15 107.98-23.93 107.57-22.7 106.73-21.65 105.9-20.6 104.63-19.78 103.37-18.95 101.67-18.43L101.67-18.43Q105.59-17.65 107.59-15.6 109.59-13.55 109.59-10.2L109.59-10.2Q109.59-7.93 108.76-6.05 107.92-4.17 106.31-2.83 104.7-1.48 102.36-0.74 100.02 0 97.02 0L97.02 0ZM96.92-16.32L89.2-16.32 89.2-3.85 96.95-3.85Q99.02-3.85 100.51-4.33 102-4.8 102.96-5.66 103.92-6.53 104.37-7.71 104.82-8.9 104.82-10.33L104.82-10.33Q104.82-13.1 102.86-14.71 100.9-16.32 96.92-16.32L96.92-16.32ZM89.2-32L89.2-19.78 95.59-19.78Q97.65-19.78 99.15-20.23 100.65-20.68 101.63-21.48 102.62-22.28 103.09-23.41 103.57-24.55 103.57-25.9L103.57-25.9Q103.57-29.05 101.67-30.53 99.77-32 95.77-32L95.77-32 89.2-32ZM132.67-3.53L132.67-3.53Q134.12-3.53 135.33-3.66 136.54-3.8 137.62-4.08 138.69-4.35 139.64-4.74 140.59-5.13 141.54-5.63L141.54-5.63 141.54-13.53 135.99-13.53Q135.52-13.53 135.23-13.8 134.94-14.08 134.94-14.48L134.94-14.48 134.94-17.23 145.94-17.23 145.94-3.48Q144.59-2.5 143.13-1.78 141.67-1.05 140-0.56 138.34-0.08 136.44 0.16 134.54 0.4 132.32 0.4L132.32 0.4Q128.42 0.4 125.17-0.94 121.92-2.27 119.57-4.69 117.22-7.1 115.91-10.48 114.59-13.85 114.59-17.9L114.59-17.9Q114.59-22 115.88-25.38 117.17-28.75 119.56-31.16 121.94-33.58 125.33-34.9 128.72-36.23 132.92-36.23L132.92-36.23Q135.04-36.23 136.87-35.91 138.69-35.6 140.25-35.01 141.82-34.43 143.14-33.59 144.47-32.75 145.62-31.7L145.62-31.7 144.24-29.5Q143.82-28.83 143.14-28.83L143.14-28.83Q142.74-28.83 142.27-29.1L142.27-29.1Q141.64-29.45 140.87-29.95 140.09-30.45 138.98-30.91 137.87-31.38 136.36-31.7 134.84-32.02 132.77-32.02L132.77-32.02Q129.74-32.02 127.29-31.04 124.84-30.05 123.12-28.21 121.39-26.38 120.47-23.76 119.54-21.15 119.54-17.9L119.54-17.9Q119.54-14.5 120.5-11.84 121.47-9.18 123.22-7.33 124.97-5.48 127.37-4.5 129.77-3.53 132.67-3.53ZM153.39-35.83L175.47-35.83 175.47-31.88 158.27-31.88 158.27-19.98 172.19-19.98 172.19-16.18 158.27-16.18 158.27-3.95 175.47-3.95 175.47 0 153.39 0 153.39-35.83ZM184.94-35.83L184.94-35.83Q185.59-35.83 185.9-35.66 186.21-35.5 186.61-35L186.61-35 207.36-8Q207.29-8.65 207.26-9.26 207.24-9.88 207.24-10.45L207.24-10.45 207.24-35.83 211.49-35.83 211.49 0 209.04 0Q208.46 0 208.08-0.2 207.69-0.4 207.31-0.88L207.31-0.88 186.59-27.85Q186.64-27.23 186.66-26.63 186.69-26.03 186.69-25.53L186.69-25.53 186.69 0 182.44 0 182.44-35.83 184.94-35.83ZM225.99-35.83L225.99 0 221.14 0 221.14-35.83 225.99-35.83ZM249.51-3.85L249.51-3.85Q251.73-3.85 253.48-4.6 255.23-5.35 256.45-6.7 257.66-8.05 258.3-9.93 258.93-11.8 258.93-14.05L258.93-14.05 258.93-35.83 263.76-35.83 263.76-14.05Q263.76-10.95 262.77-8.3 261.78-5.65 259.95-3.71 258.11-1.78 255.46-0.68 252.81 0.43 249.51 0.43L249.51 0.43Q246.21 0.43 243.56-0.68 240.91-1.78 239.06-3.71 237.21-5.65 236.22-8.3 235.23-10.95 235.23-14.05L235.23-14.05 235.23-35.83 240.06-35.83 240.06-14.08Q240.06-11.83 240.7-9.95 241.33-8.08 242.55-6.73 243.76-5.38 245.52-4.61 247.28-3.85 249.51-3.85ZM291.61-32.52L290.43-30.23Q290.21-29.85 289.96-29.66 289.71-29.48 289.31-29.48L289.31-29.48Q288.88-29.48 288.32-29.9 287.76-30.33 286.89-30.84 286.03-31.35 284.82-31.78 283.61-32.2 281.88-32.2L281.88-32.2Q280.26-32.2 279.01-31.76 277.76-31.33 276.92-30.58 276.08-29.83 275.66-28.81 275.23-27.8 275.23-26.63L275.23-26.63Q275.23-25.13 275.97-24.14 276.71-23.15 277.92-22.45 279.13-21.75 280.67-21.24 282.21-20.73 283.82-20.18 285.43-19.63 286.97-18.94 288.51-18.25 289.72-17.2 290.93-16.15 291.67-14.63 292.41-13.1 292.41-10.88L292.41-10.88Q292.41-8.53 291.61-6.46 290.81-4.4 289.27-2.88 287.73-1.35 285.49-0.48 283.26 0.4 280.41 0.4L280.41 0.4Q276.93 0.4 274.07-0.86 271.21-2.13 269.18-4.28L269.18-4.28 270.58-6.58Q270.78-6.85 271.07-7.04 271.36-7.23 271.71-7.23L271.71-7.23Q272.23-7.23 272.91-6.66 273.58-6.1 274.59-5.43 275.61-4.75 277.04-4.19 278.48-3.63 280.56-3.63L280.56-3.63Q282.28-3.63 283.63-4.1 284.98-4.58 285.92-5.44 286.86-6.3 287.36-7.5 287.86-8.7 287.86-10.18L287.86-10.18Q287.86-11.8 287.12-12.84 286.38-13.88 285.18-14.58 283.98-15.28 282.44-15.76 280.91-16.25 279.29-16.76 277.68-17.28 276.14-17.95 274.61-18.63 273.41-19.7 272.21-20.78 271.47-22.39 270.73-24 270.73-26.38L270.73-26.38Q270.73-28.28 271.47-30.05 272.21-31.83 273.61-33.2 275.01-34.58 277.07-35.4 279.13-36.23 281.81-36.23L281.81-36.23Q284.81-36.23 287.28-35.27 289.76-34.33 291.61-32.52L291.61-32.52Z" opacity="1" transform="matrix(1,0,0,1,0,0)" fill="#ffffff" class="undefined-text-0" data-fill-palette-color="quaternary" id="text-0"></path></svg></g></svg></g></svg></g></svg></g><g transform="matrix(1,0,0,1,72.34175326565861,0)"><svg viewBox="0 0 60.11649346868278 60.11649346868278" height="60.11649346868278" width="60.11649346868278"><g><svg></svg></g><g id="icon-0"><svg viewBox="0 0 60.11649346868278 60.11649346868278" height="60.11649346868278" width="60.11649346868278"><g><path d="M0 30.058c0-16.601 13.458-30.058 30.058-30.058 16.601 0 30.058 13.458 30.059 30.058 0 16.601-13.458 30.058-30.059 30.059-16.601 0-30.058-13.458-30.058-30.059zM30.058 57.799c15.321 0 27.741-12.42 27.741-27.741 0-15.321-12.42-27.741-27.741-27.74-15.321 0-27.741 12.42-27.74 27.74 0 15.321 12.42 27.741 27.74 27.741z" data-fill-palette-color="accent" fill="#000000" stroke="transparent"></path><ellipse rx="29.757664266997978" ry="29.757664266997978" cx="30.05824673434139" cy="30.05824673434139" fill="#000000" stroke="transparent" stroke-width="0" fill-opacity="1" data-fill-palette-color="accent"></ellipse></g><g transform="matrix(1,0,0,1,14.917393470533117,14.917393470533117)"><svg viewBox="0 0 30.28170652761655 30.28170652761655" height="30.28170652761655" width="30.28170652761655"><g><svg xmlns="http://www.w3.org/2000/svg" xmlns:xlink="http://www.w3.org/1999/xlink" version="1.1" x="0" y="0" viewBox="5 5 90 90" enable-background="new 0 0 100 100" xml:space="preserve" height="30.28170652761655" width="30.28170652761655" class="icon-s-0" data-fill-palette-color="quaternary" id="s-0"><path d="M50 95C25.187 95 5 74.813 5 50 5 25.188 25.187 5 50 5s45 20.188 45 45C95 74.813 74.813 95 50 95M50 8.6C27.17 8.6 8.6 27.173 8.6 50c0 22.829 18.57 41.4 41.4 41.4 22.829 0 41.4-18.571 41.4-41.4C91.4 27.173 72.829 8.6 50 8.6" fill="#ffffff" data-fill-palette-color="quaternary"></path><path d="M71.159 49.982c7.128-6.738 10.646-13.326 8.394-17.197-1.245-2.134-4.078-3.155-7.944-3.155-3.094 0-6.871 0.688-11.005 1.942-0.369-1.559-0.784-3.02-1.238-4.395 0.879-0.821 1.435-1.981 1.435-3.276 0-2.486-2.015-4.5-4.5-4.5-0.222 0-0.434 0.033-0.646 0.065-1.702-2.326-3.618-3.665-5.653-3.665-4.461 0-8.371 6.307-10.61 15.797-4.127-1.246-7.903-1.93-10.995-1.93-3.887 0-6.73 1.021-7.975 3.169-2.25 3.875 1.283 10.454 8.421 17.181-0.889 0.84-1.745 1.68-2.515 2.512-1.373-0.877-3.168-0.999-4.676-0.125-2.152 1.239-2.891 3.992-1.647 6.146 0.285 0.492 0.657 0.903 1.074 1.239-1.441 2.93-1.744 5.513-0.63 7.423 1.245 2.137 4.078 3.155 7.944 3.155 3.094 0 6.871-0.688 11.005-1.942 2.24 9.478 6.146 15.774 10.604 15.774 4.461 0 8.371-6.307 10.61-15.801 1.997 0.603 3.909 1.081 5.698 1.401 0.252 1.216 0.981 2.327 2.142 2.999 2.151 1.239 4.904 0.502 6.146-1.649 0.215-0.371 0.351-0.763 0.45-1.162 2.118-0.457 3.697-1.38 4.533-2.825C81.827 63.291 78.297 56.708 71.159 49.982M71.608 32.331c2.892 0 4.938 0.663 5.609 1.814 1.02 1.754-0.517 5.544-3.92 9.663-1.195 1.449-2.6 2.911-4.145 4.361-2.054-1.775-4.335-3.547-6.827-5.267-0.239-3.065-0.635-5.971-1.153-8.673C65.077 33.023 68.677 32.331 71.608 32.331M54.981 58.555c-1.648 0.961-3.312 1.833-4.973 2.663-1.661-0.828-3.327-1.696-4.977-2.652-1.684-0.978-3.248-1.971-4.746-2.971-0.112-1.798-0.187-3.649-0.187-5.593 0-1.942 0.074-3.795 0.187-5.59 1.522-1.016 3.094-2.013 4.732-2.964 1.648-0.961 3.312-1.837 4.971-2.667 1.663 0.828 3.328 1.7 4.979 2.656 1.684 0.978 3.248 1.971 4.746 2.967 0.112 1.798 0.187 3.653 0.187 5.597 0 1.942-0.074 3.792-0.187 5.586C58.191 56.607 56.62 57.601 54.981 58.555M59.433 59.005c-0.217 2.088-0.503 4.053-0.848 5.887-1.793-0.638-3.632-1.376-5.496-2.211 1.081-0.575 2.165-1.16 3.253-1.791C57.4 60.274 58.427 59.642 59.433 59.005M46.933 62.686c-1.87 0.84-3.714 1.585-5.515 2.231-0.346-1.842-0.633-3.811-0.851-5.905 1.009 0.638 2.046 1.271 3.108 1.886C44.766 61.529 45.852 62.113 46.933 62.686M37.472 53.639c-1.668-1.216-3.2-2.429-4.597-3.63 1.432-1.23 2.966-2.447 4.597-3.637-0.047 1.193-0.071 2.401-0.071 3.63C37.4 51.23 37.425 52.441 37.472 53.639M40.565 40.998c0.219-2.088 0.505-4.053 0.85-5.89 1.793 0.642 3.632 1.38 5.496 2.215-1.081 0.571-2.165 1.157-3.253 1.791C42.6 39.729 41.573 40.358 40.565 40.998M53.065 37.317c1.872-0.844 3.716-1.589 5.517-2.23 0.346 1.838 0.633 3.811 0.851 5.904-1.009-0.642-2.046-1.271-3.108-1.89C55.234 38.471 54.148 37.887 53.065 37.317M62.526 46.361c1.67 1.216 3.202 2.433 4.599 3.633-1.432 1.227-2.968 2.443-4.597 3.633 0.047-1.193 0.071-2.401 0.071-3.626C62.6 48.77 62.572 47.559 62.526 46.361M50 18.502c0.993 0 2.096 0.749 3.195 2.153-0.857 0.819-1.396 1.969-1.396 3.247 0 2.485 2.015 4.5 4.5 4.5 0.204 0 0.396-0.035 0.593-0.06 0.406 1.252 0.782 2.61 1.127 4.071-2.584 0.907-5.277 2.034-8.032 3.361-2.747-1.318-5.437-2.436-8.012-3.336C44.034 23.636 47.394 18.502 50 18.502M22.754 34.194c0.672-1.162 2.729-1.825 5.641-1.825 2.931 0 6.527 0.689 10.428 1.888-0.517 2.698-0.911 5.597-1.148 8.659-2.492 1.723-4.771 3.5-6.82 5.279C24.224 41.972 21.44 36.454 22.754 34.194M28.392 67.669c-2.892 0-4.938-0.659-5.611-1.814-0.619-1.062-0.283-2.881 0.826-5.064 0.859 0.055 1.742-0.13 2.544-0.59 1.961-1.132 2.728-3.514 1.912-5.557 0.856-0.938 1.789-1.875 2.784-2.812 2.054 1.779 4.335 3.547 6.827 5.267 0.239 3.065 0.633 5.973 1.153 8.673C34.923 66.977 31.323 67.669 28.392 67.669M50 81.502c-2.602 0-5.959-5.129-8.02-13.915 2.584-0.907 5.277-2.034 8.032-3.361 2.747 1.32 5.437 2.44 8.012 3.34C55.966 76.364 52.605 81.502 50 81.502M77.246 65.808c-0.38 0.654-1.211 1.146-2.377 1.456-0.358-0.918-1-1.728-1.919-2.257-2.151-1.246-4.904-0.508-6.147 1.646-0.084 0.147-0.137 0.302-0.202 0.454-1.708-0.313-3.526-0.777-5.423-1.359 0.517-2.698 0.911-5.601 1.148-8.663 2.492-1.723 4.769-3.496 6.82-5.275C75.776 58.031 78.558 63.546 77.246 65.808" fill="#ffffff" data-fill-palette-color="quaternary"></path></svg></g></svg></g></svg></g></svg></g><g></g></svg></g></svg></g></svg></g><defs></defs></svg><rect width="512" height="320" fill="none" stroke="none" visibility="hidden"></rect></g></svg></g></svg>